<svg width="24" height="24" viewBox="0 0 24 24" fill="none" xmlns="http://www.w3.org/2000/svg">
<path d="M11.9996 21.65C17.3292 21.65 21.6496 17.3296 21.6496 12C21.6496 6.67046 17.3292 2.35001 11.9996 2.35001C6.67006 2.35001 2.34961 6.67046 2.34961 12C2.34961 17.3296 6.67006 21.65 11.9996 21.65Z" stroke="#1A1A1A" stroke-width="1.7"/>
<path d="M9.66406 8.576C9.78595 8.24605 9.97859 7.94678 10.2285 7.6992C10.4783 7.45162 10.7793 7.26174 11.1104 7.14288C11.4415 7.02403 11.7945 6.97908 12.1448 7.0112C12.4951 7.04331 12.8341 7.15172 13.138 7.3288C13.4419 7.50587 13.7034 7.74733 13.9041 8.03622C14.1047 8.32511 14.2397 8.65443 14.2996 9.00104C14.3594 9.34766 14.3427 9.70318 14.2505 10.0426C14.1584 10.3821 13.993 10.6973 13.7661 10.966L12.6911 12.07C12.3651 12.392 11.9261 12.83 11.9261 13.614V13.978" stroke="#1A1A1A" stroke-width="1.7" stroke-linecap="round"/>
<path d="M11.927 17.768C12.4152 17.768 12.811 17.3722 12.811 16.884C12.811 16.3958 12.4152 16 11.927 16C11.4387 16 11.043 16.3958 11.043 16.884C11.043 17.3722 11.4387 17.768 11.927 17.768Z" fill="#1A1A1A"/>
</svg>
