<svg width="20" height="21" viewBox="0 0 20 21" fill="none" xmlns="http://www.w3.org/2000/svg">
<path d="M1.00078 6.51L0.0357814 5.11L0.0257814 5.117L1.00078 6.51ZM8.50078 1.335L7.53878 -0.0659967L7.53578 -0.0639967L8.50078 1.335ZM19.0008 6.51L19.9748 5.117L19.9658 5.111L19.0008 6.51ZM11.5008 1.335L12.4668 -0.0649967L12.4628 -0.0659967L11.5008 1.335ZM1.96578 7.91L9.46578 2.735L7.53678 -0.0639967L0.0367813 5.111L1.96678 7.909L1.96578 7.91ZM1.70078 8.35C1.70078 8.23 1.76378 8.051 1.97478 7.903L0.0257814 5.117C-1.01322 5.843 -1.69922 7.022 -1.69922 8.35H1.70078ZM1.70078 18.7V8.35H-1.69922V18.7H1.70078ZM2.50078 19.3C2.27463 19.3038 2.05526 19.2228 1.88578 19.073C1.8304 19.0274 1.78528 18.9706 1.7534 18.9063C1.72152 18.842 1.70358 18.7717 1.70078 18.7H-1.69922C-1.69922 21.035 0.322781 22.7 2.50078 22.7V19.3ZM17.5008 19.3H2.50078V22.7H17.5008V19.3ZM18.3008 18.7C18.3008 18.81 18.2538 18.946 18.1158 19.073C17.9463 19.2228 17.7269 19.3038 17.5008 19.3V22.7C19.6788 22.7 21.7008 21.035 21.7008 18.7H18.3008ZM18.3008 8.35V18.7H21.7008V8.35H18.3008ZM18.0268 7.903C18.2378 8.051 18.3008 8.229 18.3008 8.35H21.7008C21.7008 7.022 21.0138 5.843 19.9748 5.117L18.0268 7.903ZM10.5348 2.734L18.0348 7.909L19.9658 5.111L12.4658 -0.0639967L10.5348 2.734ZM9.46278 2.736C9.62308 2.63238 9.8099 2.57725 10.0008 2.57725C10.1917 2.57725 10.3785 2.63238 10.5388 2.736L12.4628 -0.0659967C11.7361 -0.558242 10.8785 -0.82135 10.0008 -0.82135C9.12306 -0.82135 8.26548 -0.558242 7.53878 -0.0659967L9.46278 2.736ZM5.38478 14.566C5.23465 14.7341 5.0239 14.8357 4.79886 14.8485C4.57383 14.8612 4.35294 14.7841 4.18478 14.634L6.44978 12.098C5.94543 11.6476 5.28285 11.416 4.60775 11.4541C3.93265 11.4921 3.3003 11.7968 2.84978 12.301L5.38478 14.566ZM5.31678 13.366C5.66678 13.679 5.69678 14.216 5.38478 14.566L2.84978 12.301C2.3994 12.8054 2.16678 13.4679 2.20485 14.143C2.24292 14.8181 2.54756 15.4505 3.05178 15.901L5.31678 13.366ZM10.0008 15.152C8.20078 15.152 6.56078 14.477 5.31678 13.366L3.05078 15.902C4.96155 17.6113 7.43708 18.5549 10.0008 18.552V15.152ZM14.6848 13.366C13.3972 14.5187 11.729 15.1548 10.0008 15.152V18.552C12.6678 18.552 15.1058 17.548 16.9498 15.902L14.6848 13.366ZM14.6168 14.566C14.4667 14.3978 14.3895 14.177 14.4023 13.9519C14.4151 13.7269 14.5167 13.5161 14.6848 13.366L16.9498 15.902C17.454 15.4515 17.7586 14.8191 17.7967 14.144C17.8348 13.4689 17.6032 12.8064 17.1528 12.302L14.6168 14.566ZM15.8168 14.634C15.6486 14.7841 15.4277 14.8612 15.2027 14.8485C14.9777 14.8357 14.7669 14.7341 14.6168 14.566L17.1528 12.301C16.7023 11.7968 16.0699 11.4921 15.3948 11.4541C14.7197 11.416 14.0571 11.6476 13.5528 12.098L15.8168 14.634ZM10.0008 16.852C12.2338 16.852 14.2728 16.013 15.8168 14.634L13.5518 12.098C12.5759 12.9724 11.311 13.4547 10.0008 13.452V16.852ZM4.18478 14.634C5.78377 16.065 7.85499 16.8549 10.0008 16.852V13.452C8.69052 13.4547 7.42562 12.9724 6.44978 12.098L4.18478 14.634Z" fill="#1A1A1A"/>
</svg>
