<svg width="20" height="21" viewBox="0 0 20 21" fill="none" xmlns="http://www.w3.org/2000/svg">
<path d="M17.4418 19.868L18.6418 18.664L17.4418 19.868ZM13.5608 16V14.3H14.2628L14.7608 14.796L13.5608 16ZM18.3008 2.99999C18.3008 2.65521 18.1638 2.32455 17.92 2.08075C17.6762 1.83695 17.3456 1.69999 17.0008 1.69999V-1.70001C18.2473 -1.70001 19.4428 -1.20484 20.3242 -0.323414C21.2056 0.558007 21.7008 1.75347 21.7008 2.99999H18.3008ZM18.3008 11.956V2.99999H21.7008V11.956H18.3008ZM18.3008 14.5V11.956H21.7008V14.5H18.3008ZM18.3008 18.806V14.5H21.7008V18.806H18.3008ZM18.6418 18.664C18.612 18.639 18.5764 18.6219 18.5383 18.6144C18.5002 18.6069 18.4608 18.6092 18.4238 18.621C18.3892 18.6388 18.3598 18.6651 18.3382 18.6975C18.3167 18.7299 18.3038 18.7672 18.3008 18.806H21.7008C21.7008 21.654 18.2598 23.083 16.2418 21.073L18.6418 18.664ZM14.7598 14.796L18.6418 18.664L16.2418 21.073L12.3598 17.204L14.7598 14.796ZM3.00078 14.3H13.5598V17.7H3.00078V14.3ZM1.70078 13C1.70078 13.3448 1.83774 13.6754 2.08154 13.9192C2.32534 14.163 2.656 14.3 3.00078 14.3V17.7C1.75426 17.7 0.5588 17.2048 -0.322621 16.3234C-1.20404 15.442 -1.69922 14.2465 -1.69922 13H1.70078ZM1.70078 2.99999V13H-1.69922V2.99999H1.70078ZM3.00078 1.69999C2.656 1.69999 2.32534 1.83695 2.08154 2.08075C1.83774 2.32455 1.70078 2.65521 1.70078 2.99999H-1.69922C-1.69922 1.75347 -1.20404 0.558007 -0.322621 -0.323414C0.5588 -1.20484 1.75426 -1.70001 3.00078 -1.70001V1.69999ZM17.0008 1.69999H3.00078V-1.70001H17.0008V1.69999Z" fill="#1A1A1A"/>
</svg>
