<svg width="24" height="24" viewBox="0 0 24 24" fill="none" xmlns="http://www.w3.org/2000/svg">
<g clip-path="url(#clip0_1169_33760)">
<path d="M20 4C20.6661 4.65104 21.1952 5.42884 21.5561 6.28756C21.9169 7.14628 22.1022 8.06855 22.101 9C22.101 10.959 21.297 12.73 20 14" stroke="#1A1A1A" stroke-width="1.7" stroke-linecap="round"/>
<mask id="mask0_1169_33760" style="mask-type:alpha" maskUnits="userSpaceOnUse" x="-1" y="0" width="18" height="23">
<path fill-rule="evenodd" clip-rule="evenodd" d="M9.49991 14H10.2179L15.4489 17.452C15.5997 17.5515 15.7746 17.6084 15.9551 17.6165C16.1356 17.6246 16.3149 17.5836 16.4739 17.498C16.633 17.4124 16.7659 17.2852 16.8585 17.1301C16.9511 16.975 17 16.7977 16.9999 16.617V1.85799C16.9999 1.67748 16.951 1.50035 16.8584 1.34538C16.7659 1.19041 16.6331 1.06338 16.4742 0.977775C16.3153 0.892166 16.1361 0.851167 15.9558 0.859127C15.7755 0.867088 15.6007 0.923711 15.4499 1.02299L10.9369 3.99999H4.99991C3.84334 3.99911 2.72224 4.39921 1.82755 5.13213C0.932866 5.86506 0.319935 6.88549 0.093159 8.0196C-0.133617 9.15372 0.0397883 10.3314 0.583839 11.352C1.12789 12.3726 2.00894 13.1731 3.07691 13.617L5.04391 20.829C5.18852 21.3589 5.52057 21.8184 5.97837 22.122C6.43617 22.4256 6.98861 22.5528 7.53308 22.4798C8.07755 22.4069 8.57703 22.1388 8.93877 21.7254C9.3005 21.312 9.4999 20.7813 9.49991 20.232V14Z" fill="#1A1A1A"/>
</mask>
<g mask="url(#mask0_1169_33760)">
<path d="M10.2188 14L11.1548 12.581L10.7288 12.301H10.2188V14ZM9.50078 14V12.3H7.80078V14H9.50078ZM15.4508 17.452L14.5138 18.872L15.4498 17.452H15.4508ZM15.4508 1.02299L14.5138 -0.396011L15.4498 1.02399L15.4508 1.02299ZM10.9378 3.99999V5.69999H11.4478L11.8738 5.41999L10.9388 3.99999H10.9378ZM3.07778 13.617L4.71778 13.17L4.49778 12.368L3.73178 12.048L3.07678 13.618L3.07778 13.617ZM5.04378 20.829L6.68378 20.382L5.04378 20.829ZM10.2178 12.3H9.50078V15.7H10.2188V12.3H10.2178ZM16.3858 16.033L11.1538 12.581L9.28078 15.42L14.5128 18.872L16.3858 16.034V16.033ZM15.2998 16.617C15.2999 16.4907 15.3342 16.3667 15.399 16.2583C15.4638 16.1499 15.5568 16.0611 15.668 16.0012C15.7792 15.9414 15.9046 15.9127 16.0308 15.9183C16.157 15.9239 16.2793 15.9635 16.3848 16.033L14.5128 18.871C16.3078 20.056 18.6998 18.768 18.6998 16.618H15.2998V16.617ZM15.2998 1.85799V16.618H18.6998V1.85699H15.2998V1.85799ZM16.3848 2.44199C16.2793 2.51146 16.157 2.55109 16.0308 2.55669C15.9046 2.56228 15.7792 2.53362 15.668 2.47376C15.5568 2.41389 15.4638 2.32505 15.399 2.21664C15.3342 2.10823 15.2999 1.9843 15.2998 1.85799H18.6998C18.6998 -0.292011 16.3078 -1.58001 14.5128 -0.396011L16.3858 2.44199H16.3848ZM11.8748 5.41899L16.3848 2.44199L14.5128 -0.396011L10.0018 2.58099L11.8738 5.41899H11.8748ZM5.00078 5.69999H10.9388V2.29999H5.00078V5.69999ZM1.70078 8.99999C1.70078 8.12477 2.04846 7.28541 2.66733 6.66654C3.2862 6.04767 4.12557 5.69999 5.00078 5.69999V2.29999C1.30078 2.29999 -1.69922 5.29999 -1.69922 8.99999H1.70078ZM3.73278 12.048C3.13095 11.7974 2.61681 11.3742 2.25518 10.8317C1.89356 10.2893 1.70065 9.65192 1.70078 8.99999H-1.69922C-1.69937 10.3229 -1.30792 11.6163 -0.574204 12.7172C0.159511 13.818 1.20266 14.677 2.42378 15.186L3.73278 12.048ZM6.68478 20.382L4.71878 13.17L1.43878 14.065L3.40478 21.276L6.68478 20.382ZM7.23278 20.8C7.10825 20.8 6.98715 20.7591 6.88814 20.6836C6.78912 20.6081 6.71767 20.5021 6.68478 20.382L3.40478 21.276C3.6338 22.1158 4.1326 22.8569 4.82433 23.3853C5.51606 23.9137 6.36234 24.1999 7.23278 24.2V20.8ZM7.80078 20.232C7.80078 20.3826 7.74094 20.5271 7.63442 20.6336C7.5279 20.7401 7.38342 20.8 7.23278 20.8V24.2C8.28516 24.2 9.29444 23.7819 10.0386 23.0378C10.7827 22.2936 11.2008 21.2844 11.2008 20.232H7.80078ZM7.80078 14V20.232H11.2008V14H7.80078Z" fill="#1A1A1A"/>
</g>
</g>
<defs>
<clipPath id="clip0_1169_33760">
<rect width="24" height="24" fill="white"/>
</clipPath>
</defs>
</svg>
