<svg width="30" height="30" viewBox="0 0 30 30" fill="none" xmlns="http://www.w3.org/2000/svg">
<circle cx="15" cy="15" r="15" fill="#6787B7"/>
<g clip-path="url(#clip0_11_47180)">
<path d="M19.6667 15.6667H10.3333C9.6 15.6667 9 16.2667 9 17V19.6667C9 20.4 9.6 21 10.3333 21H19.6667C20.4 21 21 20.4 21 19.6667V17C21 16.2667 20.4 15.6667 19.6667 15.6667ZM11.6667 19.6667C10.9333 19.6667 10.3333 19.0667 10.3333 18.3333C10.3333 17.6 10.9333 17 11.6667 17C12.4 17 13 17.6 13 18.3333C13 19.0667 12.4 19.6667 11.6667 19.6667ZM19.6667 9H10.3333C9.6 9 9 9.6 9 10.3333V13C9 13.7333 9.6 14.3333 10.3333 14.3333H19.6667C20.4 14.3333 21 13.7333 21 13V10.3333C21 9.6 20.4 9 19.6667 9ZM11.6667 13C10.9333 13 10.3333 12.4 10.3333 11.6667C10.3333 10.9333 10.9333 10.3333 11.6667 10.3333C12.4 10.3333 13 10.9333 13 11.6667C13 12.4 12.4 13 11.6667 13Z" fill="white"/>
</g>
<defs>
<clipPath id="clip0_11_47180">
<rect width="16" height="16" fill="white" transform="translate(7 7)"/>
</clipPath>
</defs>
</svg>
