<svg width="20" height="13" viewBox="0 0 20 13" fill="none" xmlns="http://www.w3.org/2000/svg">
<path d="M9.96529 8.68728C9.77669 8.68396 9.59468 8.63984 9.45086 8.56261L4.65481 5.97268C4.31488 5.78957 4.27384 5.47322 4.56316 5.26609C4.85248 5.05895 5.36259 5.03948 5.70253 5.22258L9.98687 7.54291L14.3541 5.46566C14.5224 5.38497 14.7371 5.34977 14.9504 5.36787C15.1638 5.38596 15.3583 5.45586 15.4908 5.56208C15.6383 5.66877 15.7085 5.80787 15.6844 5.94593C15.6603 6.08399 15.5443 6.20851 15.3641 6.28955L10.4754 8.61192C10.3248 8.67182 10.1452 8.69836 9.96529 8.68728Z" fill="#212B36"/>
</svg>
