<svg width="12" height="20" viewBox="0 0 12 20" fill="none" xmlns="http://www.w3.org/2000/svg">
<path d="M8.00226 9.68845C8.00249 9.87709 7.96182 10.0599 7.88731 10.2051L5.38824 15.0492C5.21157 15.3925 4.89605 15.4395 4.6835 15.1541C4.47095 14.8687 4.44186 14.3591 4.61852 14.0158L6.85769 9.68845L4.69849 5.36114C4.61464 5.19435 4.57541 4.98045 4.58948 4.76679C4.60355 4.55314 4.66977 4.35736 4.77347 4.2228C4.87736 4.07333 5.01512 4.00057 5.1536 4.02202C5.29209 4.04347 5.41878 4.15719 5.50319 4.33582L7.9173 9.17983C7.98003 9.32925 8.00995 9.50833 8.00226 9.68845Z" fill="#212B36"/>
</svg>
