<svg width="30" height="30" viewBox="0 0 30 30" fill="none" xmlns="http://www.w3.org/2000/svg">
<circle cx="15" cy="15" r="15" fill="#6787B7"/>
<g clip-path="url(#clip0_11_47176)">
<path d="M17.1188 8.61875C16.8812 8.38125 16.5625 8.25 16.2312 8.25H11.75C11.0625 8.25 10.5 8.8125 10.5 9.5V19.5C10.5 20.1875 11.0562 20.75 11.7437 20.75H19.25C19.9375 20.75 20.5 20.1875 20.5 19.5V12.5188C20.5 12.1875 20.3687 11.8688 20.1313 11.6375L17.1188 8.61875ZM17.375 18.25H13.625C13.2812 18.25 13 17.9688 13 17.625C13 17.2812 13.2812 17 13.625 17H17.375C17.7188 17 18 17.2812 18 17.625C18 17.9688 17.7188 18.25 17.375 18.25ZM17.375 15.75H13.625C13.2812 15.75 13 15.4688 13 15.125C13 14.7812 13.2812 14.5 13.625 14.5H17.375C17.7188 14.5 18 14.7812 18 15.125C18 15.4688 17.7188 15.75 17.375 15.75ZM16.125 12V9.1875L19.5625 12.625H16.75C16.4062 12.625 16.125 12.3438 16.125 12Z" fill="white"/>
</g>
<defs>
<clipPath id="clip0_11_47176">
<rect width="15" height="15" fill="white" transform="translate(8 7)"/>
</clipPath>
</defs>
</svg>
