<svg width="1440" height="468" viewBox="0 0 1440 468" fill="none" xmlns="http://www.w3.org/2000/svg">
<path d="M1.05859 302.478C1.05859 302.478 263.256 303.282 327.278 306.946C379 309.906 388.411 364.09 441.976 368.007C503.049 372.475 573.06 318.86 567.101 233.97C561.143 149.08 506.028 147.591 503.049 88.0189C500.293 32.8999 544.758 0.150229 583.487 1.63953C629.649 3.41179 669.883 41.7464 669.883 82.0617C669.883 122.377 620.727 138.655 626.685 183.334C629.947 207.773 656.104 231.796 681.8 230.992C729.466 229.502 729.466 184.823 789.05 186.313C849.006 187.817 856.081 250.353 851.612 274.181C847.144 298.01 830.758 363.539 771.175 350.136C711.591 336.732 701.164 305.457 653.497 305.457C612.191 305.457 553.695 336.732 580.508 406.729C607.32 476.726 677.331 472.258 710.102 448.429C742.873 424.601 781.602 393.325 833.737 400.772C881.494 407.593 899.279 469.28 963.331 466.301C1021.54 463.59 1029.9 425.479 1036.32 363.539C1042.61 302.806 1098.88 296.521 1200.18 298.01C1301.47 299.499 1440 299.499 1440 299.499" stroke="#253858" stroke-opacity="0.2" stroke-width="2" stroke-miterlimit="10" stroke-linecap="round" stroke-dasharray="10 10"/>
</svg>
