<svg width="16" height="17" viewBox="0 0 16 17" fill="none" xmlns="http://www.w3.org/2000/svg">
<path d="M12.5589 16.3635H3.43997C1.55161 16.3635 0.015625 14.8782 0.015625 13.0505V3.75687C0.015625 1.9301 1.55112 0.443848 3.43997 0.443848H12.5589C14.4478 0.443848 15.9837 1.9301 15.9837 3.75687V13.0505C15.9837 14.8782 14.4478 16.3635 12.5589 16.3635ZM3.43997 1.80929C2.31148 1.80929 1.39314 2.68273 1.39314 3.75687V13.0505C1.39314 14.1256 2.31099 14.9995 3.43997 14.9995H12.5589C13.6864 14.9995 14.6057 14.1256 14.6057 13.0505V3.75687C14.6057 2.68273 13.6864 1.80929 12.5589 1.80929H3.43997Z" fill="white"/>
<path d="M7.99859 12.5363C5.69781 12.5363 3.82422 10.6827 3.82422 8.40436C3.82422 6.12602 5.69781 4.27295 7.99859 4.27295C10.2994 4.27295 12.1735 6.12553 12.1735 8.40436C12.1735 10.6832 10.3004 12.5363 7.99859 12.5363ZM7.99859 5.63693C6.45769 5.63693 5.20321 6.87865 5.20321 8.40436C5.20321 9.93008 6.45769 11.1708 7.99859 11.1708C9.5395 11.1708 10.795 9.92959 10.795 8.40436C10.795 6.87914 9.54097 5.63693 7.99859 5.63693Z" fill="white"/>
<path d="M13.4562 4.06463C13.4562 4.59804 13.0197 5.03062 12.4803 5.03062C11.9409 5.03062 11.5039 4.59804 11.5039 4.06463C11.5039 3.53121 11.9409 3.09814 12.4803 3.09814C13.0197 3.09814 13.4562 3.53121 13.4562 4.06463Z" fill="white"/>
</svg>
