<svg width="16" height="13" viewBox="0 0 16 13" fill="none" xmlns="http://www.w3.org/2000/svg">
<path d="M14.4 0H1.6C0.72 0 0.00799999 0.73125 0.00799999 1.625L0 11.375C0 12.2688 0.72 13 1.6 13H14.4C15.28 13 16 12.2688 16 11.375V1.625C16 0.73125 15.28 0 14.4 0ZM14.08 3.45312L8.424 7.04438C8.168 7.20688 7.832 7.20688 7.576 7.04438L1.92 3.45312C1.72 3.32313 1.6 3.10375 1.6 2.86813C1.6 2.32375 2.184 1.99875 2.64 2.28312L8 5.6875L13.36 2.28312C13.816 1.99875 14.4 2.32375 14.4 2.86813C14.4 3.10375 14.28 3.32313 14.08 3.45312Z" fill="white"/>
</svg>
